<svg width="930" height="534" viewBox="0 0 930 534" fill="none" xmlns="http://www.w3.org/2000/svg">
<path d="M1.73333 0.845089C0.4 1.37842 0 55.7784 0 266.578C0 506.978 0.133333 531.645 2.13333 532.445C3.33333 532.845 93.8667 533.245 203.333 533.245C382.533 533.245 402.667 532.978 404.533 531.112C406.4 529.245 406.667 503.512 406.667 267.112C406.667 88.9784 406.267 4.17842 405.333 2.44509C403.867 -0.088244 400.267 -0.088244 203.6 0.0450894C93.4667 0.0450894 2.53333 0.445089 1.73333 0.845089ZM199.867 13.7784C210.133 19.2451 219.733 36.0451 224.133 56.8451C226.667 68.7118 226.933 72.7118 226.133 99.9118C225.2 134.445 226.133 141.512 234 157.378C244 177.512 264.267 204.578 290.4 232.312C299.867 242.178 305.733 249.512 306.4 252.312C308.533 260.445 304 266.978 291.333 274.045C279.867 280.312 275.467 283.378 270.4 288.712C265.733 293.378 265.333 294.445 265.333 301.512C265.333 308.178 266 310.312 270 316.045C275.733 324.445 275.867 327.245 270.4 332.045C254.4 345.778 254.133 346.178 254.133 350.845C254.133 353.778 255.467 357.112 257.733 360.045C262.667 366.712 262.4 371.512 255.867 383.645C250.533 393.778 250.4 394.045 251.2 403.912C251.6 409.378 252.4 418.845 252.8 424.712C254 438.845 252.8 444.178 247.6 450.178C240.4 458.445 233.733 460.578 216.4 460.178C208.267 460.045 195.6 459.112 188.4 457.912C167.067 454.712 135.867 453.112 124.933 454.578C98.9333 458.178 74.4 478.845 58.6667 510.445L53.2 521.245H32.5333H12V266.578V11.9118H104C181.467 11.9118 196.667 12.1784 199.867 13.7784ZM393.333 266.578V521.245H234.667C147.333 521.245 76 520.978 76 520.578C76 518.845 82.8 506.712 87.2 500.712C98.9333 484.312 111.733 474.312 127.333 469.778C137.733 466.712 162.8 466.845 184.667 469.912C193.467 471.245 209.067 472.312 219.333 472.445C236.933 472.445 238.4 472.312 245.733 468.845C257.2 463.645 263.333 458.178 267.6 449.512C271.2 442.312 271.333 441.245 270.667 427.245C269.333 392.712 269.2 393.512 276.4 384.045C279.867 379.378 283.067 374.178 283.467 372.312C284.933 366.845 283.2 358.978 279.467 354.312L276.133 349.778L282.8 344.045C290.267 337.645 294.667 331.378 294.667 327.112C294.667 325.645 292.533 320.312 290 315.112C282.267 299.778 283.333 296.845 300.533 288.445C315.467 281.245 322.267 275.912 325.467 268.712C331.467 255.645 326.8 244.978 304.667 220.578C272.8 185.512 257.867 165.778 249.067 147.245L244.667 137.912L243.867 101.912C243.333 82.0451 242.267 62.3118 241.333 58.0451C238.533 43.6451 228.8 22.0451 222.667 16.5784C221.2 15.2451 220 13.6451 220 12.9784C220 12.4451 259.067 11.9118 306.667 11.9118H393.333V266.578Z" fill="black"/>
<path d="M804.667 72.5784C801.067 73.5117 796.4 74.7117 794.4 75.1117C790.533 76.045 789.2 78.5784 792.667 78.5784C793.733 78.5784 795.867 79.7784 797.333 81.245C799.867 83.7784 800 85.645 800 127.245C800 168.845 799.867 170.712 797.333 173.245C795.867 174.712 793.467 175.912 791.867 175.912C790.267 175.912 789.333 176.578 789.6 177.512C790.4 179.645 818.933 180.578 822.4 178.712C824.4 177.645 824.267 177.245 821.067 176.045C819.2 175.378 817.067 173.912 816.4 172.978C815.867 172.045 815.067 148.845 814.667 121.378C814.267 89.7784 813.467 71.3784 812.667 71.1117C812 70.9784 808.4 71.645 804.667 72.5784Z" fill="black"/>
<path d="M466.667 78.9782C466.667 79.9115 468.667 81.6449 470.934 82.7115C473.467 83.7782 475.601 85.9115 476.134 87.9115C477.334 92.3115 477.334 164.845 476.134 169.245C475.601 171.245 473.334 173.512 470.134 175.112C467.201 176.578 465.601 178.045 466.401 178.845C468.134 180.578 502.934 179.645 503.601 177.645C503.867 176.845 502.267 175.778 500.001 175.245C497.867 174.712 495.334 173.245 494.667 171.912C493.867 170.578 493.334 160.978 493.334 150.578V131.778L506.267 132.178L519.201 132.578L522.401 137.245C527.601 144.978 528.667 143.512 529.067 127.378C529.467 110.312 528.001 107.112 524.001 116.312C522.401 119.778 520.134 123.112 518.667 123.912C517.334 124.578 511.067 125.245 504.801 125.245H493.334V104.178V83.1115L507.734 83.6449C524.801 84.3115 528.534 86.0449 533.867 95.9115C539.601 106.445 541.467 104.978 541.067 90.1782L540.667 77.9115L503.734 77.5115C473.467 77.2449 466.667 77.5115 466.667 78.9782Z" fill="black"/>
<path d="M687.466 81.3784C680.4 86.8451 684.666 97.2451 693.866 97.2451C702.133 97.2451 705.733 87.2451 699.6 81.5118C695.733 77.7784 692 77.7784 687.466 81.3784Z" fill="black"/>
<path d="M564.8 106.712C556.933 108.579 549.733 113.112 545.866 118.712C541.733 124.712 542.133 128.045 547.066 129.779C552.133 131.645 554.666 129.779 556.8 122.579C558.933 115.379 561.6 113.245 568 113.245C575.866 113.245 579.066 117.779 579.2 128.712L579.333 137.645L567.733 141.379C547.733 147.912 541.2 153.379 540.266 164.445C539.733 170.845 540.133 171.912 543.6 175.912C550.533 183.645 565.6 182.845 575.466 174.312C578 172.045 580 170.979 580 171.645C580 172.445 581.6 174.845 583.466 177.112C588.133 182.712 596.4 182.979 602.533 177.779C607.2 173.912 607.866 171.245 604 172.312C602.533 172.712 600.133 172.045 598.533 170.712C596 168.712 595.733 166.712 594.933 142.312C594 116.845 593.866 116.045 590.666 112.445C584.4 105.779 576.533 104.045 564.8 106.712ZM580 151.245C580 160.845 577.333 167.112 571.733 170.579C562.4 176.312 554.666 172.445 554.666 162.045C554.666 154.445 557.333 151.379 567.333 147.245C579.333 142.312 580 142.579 580 151.245Z" fill="black"/>
<path d="M744.4 106.445C726.934 110.845 714 128.712 727.2 130.312C731.867 130.845 734.4 128.712 735.467 123.245C737.334 113.112 749.334 109.112 755.6 116.579C758.134 119.379 758.667 121.645 758.667 128.979V137.912L749.734 140.445C733.2 145.245 721.067 153.645 719.467 161.512C718.134 168.179 720.934 175.645 725.734 178.579C734 183.645 747.6 181.379 754.8 173.779C758.267 170.179 760 169.645 760 172.445C760 173.512 761.334 176.045 763.067 178.045C767.334 182.845 775.6 182.845 782.134 177.912C787.334 173.912 788.134 171.245 783.6 172.445C781.734 172.845 779.334 172.312 777.867 171.379C775.6 169.645 775.334 167.112 774.667 144.312C774.134 122.179 773.734 118.712 771.2 114.579C769.734 112.045 767.067 109.245 765.2 108.312C760.8 106.179 749.6 105.112 744.4 106.445ZM758.8 154.579C757.6 163.645 757.067 164.979 752.8 168.845C746.667 174.579 740.134 174.845 736.134 169.779C732.134 164.712 732.534 158.179 737.067 153.245C740.8 148.979 757.067 142.045 758.934 143.779C759.6 144.312 759.467 149.112 758.8 154.579Z" fill="black"/>
<path d="M632.533 109.112C625.333 112.445 617.6 120.312 614.266 127.779C611.066 135.112 610.533 149.645 613.2 158.845C615.466 166.712 622.8 175.512 629.866 178.712C636 181.512 647.333 182.045 655.066 179.779C662.4 177.779 674 166.845 671.466 164.312C671.066 163.912 668.133 165.245 665.066 167.245C657.066 172.579 646.4 173.379 640.133 168.979C633.866 164.712 630.933 160.312 628.666 151.912C623.733 133.245 629.733 115.512 642.133 112.445C648.533 110.845 656 116.579 656 123.245C656 125.912 661.066 129.112 664.133 128.312C667.333 127.379 672 121.645 672 118.579C672 115.245 665.066 109.645 658.933 107.912C651.066 105.779 638.666 106.312 632.533 109.112Z" fill="black"/>
<path d="M687.067 108.979C682.4 110.045 678.667 111.645 678.667 112.445C678.8 113.245 680.667 115.112 683.067 116.579L687.334 119.245L687.734 144.312C688.134 170.979 687.467 173.912 682 175.379C680.134 175.779 678.667 176.979 678.667 178.045C678.667 179.512 682.134 179.912 695.867 179.912C706.134 179.912 713.467 179.379 714 178.579C714.4 177.779 713.734 176.845 712.4 176.445C711.067 176.045 708.534 174.979 706.667 174.179L703.334 172.445L702.667 139.912L702 107.245L698.667 106.979C696.8 106.979 691.6 107.779 687.067 108.979Z" fill="black"/>
<path d="M481.333 222.178C470.933 227.511 466 234.845 466.133 245.111C466.266 258.445 473.733 266.978 492.8 276.178C506.666 282.711 512 288.311 512 296.311C512 307.111 504.266 314.578 492.933 314.578C484.8 314.578 477.466 309.111 472.666 299.245C470.666 295.111 468.266 292.045 467.466 292.311C465.6 292.978 464.933 304.311 466.4 311.245C467.466 316.311 467.733 316.578 474.666 318.178C485.2 320.711 502.266 320.711 508.133 318.178C514.666 315.511 522.666 308.178 524.8 302.978C527.2 297.511 527.2 287.645 524.933 282.178C522.266 275.911 510 265.378 498.133 259.245C485.066 252.445 481.2 248.445 480.4 240.978C479.2 229.378 488.933 221.911 501.066 225.245C507.066 226.711 510 229.645 514.666 238.311C516.533 241.778 518.666 244.445 519.333 244.178C520.133 244.045 520.666 239.511 520.666 234.178V224.578L515.333 221.911C511.733 220.178 506.533 219.111 499.333 218.845C489.733 218.445 487.866 218.845 481.333 222.178Z" fill="black"/>
<path d="M630 247.245C626.4 248.311 621.734 249.378 619.734 249.911C615.067 250.845 614.934 254.045 619.334 255.111C621.334 255.645 623.334 257.511 624 259.378C625.467 263.111 625.6 304.045 624.134 309.245C623.6 311.245 621.467 313.378 618.934 314.445C616.667 315.511 614.667 316.845 614.667 317.511C614.667 318.045 622.534 318.578 632 318.578C650 318.578 653.067 317.511 644.667 314.045L640.134 312.045L639.734 289.645L639.334 267.245L643.6 262.845C648.267 258.045 650.4 257.645 656.134 260.711C659.867 262.578 660.534 262.578 663.467 260.578C665.734 259.111 666.667 257.245 666.667 254.178C666.667 248.445 664.667 246.578 658.4 246.578C652.134 246.578 647.6 249.378 643.867 255.378C640.134 261.645 638.134 261.245 639.067 254.445C639.734 248.978 639.2 245.111 637.467 245.378C637.067 245.378 633.734 246.311 630 247.245Z" fill="black"/>
<path d="M688.666 248.045C676.4 252.845 669.333 264.178 671.466 275.645C672.133 278.845 674.266 282.445 678 286.178L683.6 291.912L677.866 296.712C672.8 300.845 672 302.178 672 306.578C672 310.845 672.8 312.445 676.666 315.645L681.333 319.378L674.8 323.645C667.2 328.578 664.933 333.512 666.8 340.312C669.466 349.912 678.133 353.778 697.333 353.778C712.8 353.645 721.066 351.112 728.4 344.178C739.733 333.512 738.933 316.312 726.933 310.045C724.8 308.978 716.4 307.778 706.666 307.245C687.066 306.045 684 305.245 684 300.712C684 295.645 687.333 293.912 696.666 294.312C702.933 294.712 706.666 294.045 711.866 291.912C724.8 286.312 729.866 275.912 726.4 262.045L724.4 254.312L730.666 255.112C737.466 256.045 738.666 255.112 738.666 248.578C738.666 245.778 738.266 245.512 733.066 246.178C729.866 246.578 725.2 247.245 722.666 247.778C720 248.312 715.733 248.045 712.666 247.112C704.933 244.712 696.266 244.978 688.666 248.045ZM706.4 253.912C711.333 258.045 714 267.912 712.666 276.178C710.266 290.312 694.666 294.178 688.533 282.178C685.733 276.978 685.466 264.712 687.866 258.845C691.333 250.712 699.866 248.445 706.4 253.912ZM719.6 323.378C727.066 328.978 724.266 340.712 714.266 345.378C707.333 348.445 692.266 348.845 686.666 345.912C678 341.378 676 331.378 682.266 323.912L685.733 319.645L700.8 320.178C713.6 320.445 716.4 320.978 719.6 323.378Z" fill="black"/>
<path d="M756.667 248.445C743.2 254.845 736.934 265.912 736.934 283.245C737.2 306.845 747.867 319.912 767.2 320.045C777.734 320.178 785.734 316.845 792 309.778C798 302.845 797.067 299.912 790.4 305.112C786 308.578 776.934 310.845 771.467 309.912C760.534 307.778 753.734 299.245 752.4 285.778L751.6 278.578H773.067C797.334 278.578 797.2 278.712 795.334 267.512C794 260.178 791.6 255.645 786.667 251.512C778.667 244.712 767.067 243.512 756.667 248.445ZM774.534 252.712C778.4 255.512 781.334 262.312 781.334 268.578V273.245H766.534H751.6L752.534 267.645C754.667 254.178 765.734 246.578 774.534 252.712Z" fill="black"/>
<path d="M815.333 247.245C811.733 248.311 807.067 249.378 805.067 249.911C800.4 250.845 800.267 252.845 804.667 254.845C809.6 257.111 810.667 262.445 810.667 285.378C810.667 308.311 809.733 312.578 804.667 314.578C797.333 317.378 801.467 318.578 818.8 318.578C831.733 318.578 836.133 318.178 835.733 316.978C835.333 316.045 833.467 314.978 831.333 314.311C829.333 313.778 827.067 312.578 826.533 311.645C825.867 310.711 825.333 299.911 825.333 287.645V265.378L830.133 261.778C834.8 258.178 834.933 258.178 840.4 260.178C847.2 262.711 851.333 261.511 852.533 256.578C853.733 252.045 850.533 246.978 845.733 245.778C840.933 244.578 834.267 248.311 829.733 254.978L826 260.445L825.333 253.245C824.933 249.378 824.133 245.911 823.333 245.778C822.667 245.645 819.067 246.311 815.333 247.245Z" fill="black"/>
<path d="M540.8 248.445C532.133 250.045 529.733 252.579 535.333 254.045C537.333 254.579 539.333 256.312 540.133 258.179C540.8 259.912 541.333 271.645 541.333 284.045C541.333 308.579 542 311.779 548.8 317.112C551.467 319.112 554.267 319.912 559.6 319.912C567.733 319.912 573.467 317.912 579.467 312.845C581.867 310.845 584.133 309.245 584.533 309.245C584.933 309.245 585.333 311.645 585.333 314.579C585.333 320.312 585.867 320.579 593.333 318.712C595.867 317.912 600.533 316.712 603.733 315.912C609.333 314.445 611.733 310.579 607.067 310.579C600.933 310.445 600.667 309.645 600 277.645L599.333 247.245L594.667 247.379C586.933 247.645 576 249.512 575.2 250.712C574.8 251.379 576.8 252.845 579.6 254.179L584.667 256.579L585.067 280.179L585.333 303.645L580.533 306.579C578 308.312 573.2 309.912 570 310.312C564.8 310.845 563.6 310.445 560 306.845L556 302.845V274.712V246.579L552.4 246.712C550.267 246.845 545.067 247.645 540.8 248.445Z" fill="black"/>
<path d="M910.933 247.778C904.133 248.578 904 248.712 906.533 250.845C911.333 254.978 911.467 261.378 906.667 274.978C901.6 289.112 899.067 294.578 897.467 294.578C895.867 294.578 889.6 279.112 885.333 264.578C882.267 254.045 881.867 251.645 883.467 250.978C888.533 249.112 883.867 247.912 870.667 247.912C862.667 247.912 856 248.312 856 248.978C856 249.512 857.733 250.712 859.733 251.645C864.133 253.512 864.8 254.712 872.933 276.578C888.667 318.578 888.267 316.978 883.467 327.512C879.867 335.245 876 338.312 868.533 339.512C861.2 340.712 858.933 345.378 863.467 349.778C868.133 354.578 878.267 351.512 882.4 344.045C885.6 338.312 897.867 310.045 901.333 300.578C902.667 296.845 907.733 285.245 912.533 274.578C918.8 260.845 922.533 254.178 925.733 251.645C930 248.045 930 248.045 926.667 247.912C924.8 247.912 922.133 247.645 920.667 247.378C919.2 247.112 914.8 247.378 910.933 247.778Z" fill="black"/>
<path d="M495.733 361.778C493.066 362.712 488.266 365.112 484.933 366.978C460.133 381.512 455.466 424.845 476.4 446.312C487.733 458.045 502.8 462.578 522.533 459.912C528.8 459.112 536.133 457.378 538.666 456.178L543.333 453.912L543.733 443.512C544.133 430.845 542.533 430.445 536.666 441.778C532.266 450.445 528.4 452.978 518.933 454.178C505.466 455.778 492.533 447.912 486.8 434.578C478.666 415.512 481.066 385.512 491.733 374.178C496.4 369.112 500.666 366.978 508.266 365.912C522 363.778 532.4 369.245 537.466 380.978C541.066 389.378 543.2 387.645 543.733 376.178C544.133 367.512 543.866 366.578 541.066 364.845C533.6 360.045 505.733 358.178 495.733 361.778Z" fill="black"/>
<path d="M718.134 372.179C714.134 378.845 706.934 386.179 702.667 387.912C698 389.912 697.2 393.512 701.734 393.112C709.867 392.445 709.334 390.445 709.334 422.712V452.179L713.467 456.045C716.8 459.112 718.8 459.912 723.867 459.912C730.934 459.912 738 456.579 741.867 451.512C745.2 446.979 743.734 445.379 738.8 448.312C733.467 451.512 728.534 451.245 726.134 447.645C724.4 445.245 724 440.045 724 418.979V393.379L733.067 392.979C740.934 392.579 742 392.312 742 389.912C742 387.512 741.2 387.245 733.067 387.379L724 387.512V377.645C724 366.712 722.267 365.112 718.134 372.179Z" fill="black"/>
<path d="M576.534 386.711C570 388.578 560.667 397.645 557.334 405.378C551.2 419.911 554.134 440.845 563.734 450.978C576 463.911 597.467 463.245 609.467 449.511C615.6 442.578 614 440.045 606.667 445.378C599.467 450.845 586 450.845 578.934 445.645C574 441.911 570.267 433.778 569.6 425.378L569.067 417.911L587.467 418.311C612.134 418.845 612 418.978 612 410.045C612 391.645 596 380.978 576.534 386.711ZM593.067 393.511C596.534 397.245 598.667 402.845 598.667 408.045V411.911H584C567.734 411.911 568 412.178 570.667 402.311C573.6 391.911 586.667 386.845 593.067 393.511Z" fill="black"/>
<path d="M630.134 387.779C620 390.312 618 392.312 623.2 394.845C625.2 395.645 627.067 397.645 627.467 399.112C627.734 400.712 627.867 413.245 627.734 427.245L627.334 452.579L623.067 454.445C620.667 455.512 618.667 456.845 618.667 457.512C618.667 458.979 653.2 458.312 653.734 456.712C653.867 456.179 651.867 454.979 649.334 454.045C644.8 452.579 644.667 452.312 643.867 444.579C643.334 440.179 642.934 429.379 642.8 420.445C642.667 402.445 643.334 400.979 653.6 396.579C660.934 393.645 665.067 394.045 669.467 398.445L673.334 402.312V426.312C673.334 447.379 673.067 450.445 671.067 452.179C669.734 453.379 667.6 454.579 666.267 454.712C664.934 454.979 663.867 455.779 663.867 456.579C664 458.312 692.667 459.112 695.6 457.512C697.334 456.445 697.2 455.912 693.867 454.445C688.8 451.912 688.4 449.379 688.134 421.245C688 400.312 687.734 397.512 685.334 393.512C678.534 382.312 660.134 382.579 647.867 394.045C646 395.779 644.134 397.245 643.734 397.245C643.2 397.245 642.667 394.712 642.4 391.645C642.134 388.579 641.467 385.912 640.667 385.779C640 385.645 635.2 386.579 630.134 387.779Z" fill="black"/>
<path d="M766 388.045C757.867 392.178 750.934 400.445 748.534 408.978C745.734 418.312 746.534 435.912 750 442.712C758.4 459.245 777.067 465.245 793.2 456.578C797.067 454.445 801.734 450.712 803.6 448.312C807.6 443.112 806.534 439.778 802.134 443.645C794.4 450.712 780.934 452.045 772.667 446.445C766.934 442.578 762.4 433.645 761.6 424.712L761.067 417.912L778.667 418.312C788.4 418.578 798.4 418.445 800.934 417.912C805.067 417.245 805.334 416.712 805.334 412.045C805.334 405.912 802.134 396.312 798.934 392.845C792 385.112 776.134 382.845 766 388.045ZM784.134 391.912C787.734 393.912 790.667 400.312 790.667 406.578V411.912H775.867H761.067L762 406.978C763.2 400.445 766 395.245 769.6 392.712C773.067 390.312 780.267 389.912 784.134 391.912Z" fill="black"/>
<path d="M822.133 387.778C812.133 390.311 809.867 392.445 815.2 394.445C816.933 395.245 819.2 396.978 819.867 398.445C820.8 400.045 821.333 410.578 821.333 424.578C821.333 449.378 820.667 452.578 815.2 454.578C808 457.378 812.267 458.578 829.467 458.578C842.8 458.578 846.8 458.178 846.4 456.845C846 456.045 844.667 454.978 843.2 454.711C841.867 454.578 839.6 453.378 838.4 452.178C836.267 450.445 836 447.378 836 427.778V405.511L840.667 401.378C846 396.711 847.467 396.445 851.2 399.245C854.933 402.178 859.6 401.645 861.867 398.311C864.667 394.311 864.533 391.111 861.333 387.911C855.867 382.445 845.733 386.045 839.867 395.378L836.667 400.578L836.267 392.845C835.867 384.178 836.4 384.311 822.133 387.778Z" fill="black"/>
</svg>
