<?xml version="1.0" encoding="UTF-8"?> <svg xmlns="http://www.w3.org/2000/svg" width="200" height="200" viewBox="0 0 200 200" fill="none"><path d="M158.959 75.4672C158.959 59.2339 151.945 44.1339 139.218 32.9339C126.491 21.7339 109.75 16.0006 92.1057 16.7673C58.0461 18.2339 31.3987 44.7006 31.3987 77.3339C31.3987 82.6672 29.9524 87.9339 27.1684 92.5672L17.9846 108.101C16.1406 111.201 16.249 114.867 18.2015 117.934C20.154 120.967 23.625 122.767 27.4214 122.767H29.1931V144.301C29.1931 154.567 38.2684 162.934 49.4047 162.934H72.9065L80.7164 181.267C81.2587 182.567 82.6327 183.367 84.0789 183.367C84.5128 183.367 84.9467 183.301 85.3806 183.134C87.2246 182.467 88.1646 180.534 87.4415 178.801L78.7277 158.301V158.267L72.1472 142.801C71.4241 141.101 69.327 140.234 67.4469 140.901C65.6029 141.567 64.6628 143.501 65.3859 145.234L70.0863 156.234H49.4409C42.2818 156.234 36.4606 150.867 36.4606 144.267V119.401C36.4606 117.567 34.8336 116.067 32.8449 116.067H27.4214C25.6136 116.067 24.7097 114.967 24.4204 114.467C24.095 114.001 23.4804 112.701 24.3481 111.234L33.4958 95.7339C36.8583 90.1339 38.63 83.7672 38.63 77.0006C38.63 48.2339 62.2765 24.6673 92.4673 23.4006C108.123 22.7006 122.947 27.8006 134.264 37.7339C145.545 47.6672 151.8 61.0672 151.8 75.4672C151.8 95.4006 145.111 102.801 139.218 109.367C134.771 114.334 130.54 119.001 130.54 127.434C130.54 145.501 142.834 171.367 143.376 172.467C143.991 173.701 145.292 174.467 146.702 174.467C147.208 174.467 147.678 174.367 148.149 174.167C149.956 173.434 150.788 171.467 149.993 169.767C149.884 169.501 137.772 144.101 137.772 127.434C137.772 121.401 140.7 118.134 144.786 113.634C151.077 106.567 158.959 97.8006 158.959 75.4672Z" fill="#0F5E67"></path><path fill-rule="evenodd" clip-rule="evenodd" d="M84.7717 76.6752C85.3806 78.249 84.5984 80.0185 83.0246 80.6275C73.6734 84.2456 66.9445 93.602 66.9445 104.648C66.9445 111.09 69.233 116.96 73.0001 121.452C74.0843 122.746 73.915 124.673 72.6218 125.757C71.3287 126.841 69.4014 126.672 68.3172 125.379C63.6487 119.811 60.8334 112.559 60.8334 104.648C60.8334 91.0913 69.1017 79.4618 80.8194 74.9281C82.3933 74.3192 84.1628 75.1014 84.7717 76.6752ZM107.023 80.54C108.118 79.2562 110.047 79.1034 111.331 80.1987C118.164 86.0286 122.5 94.8298 122.5 104.648C122.5 122.085 108.787 136.389 91.6668 136.389C89.9792 136.389 88.6112 135.021 88.6112 133.333C88.6112 131.646 89.9792 130.278 91.6668 130.278C105.229 130.278 116.389 118.896 116.389 104.648C116.389 96.6551 112.865 89.5404 107.364 84.8477C106.081 83.7524 105.928 81.8238 107.023 80.54Z" fill="#0F5E67"></path><path fill-rule="evenodd" clip-rule="evenodd" d="M81.2213 120.24C81.9036 118.696 83.7079 117.998 85.2514 118.681C90.2896 120.908 96.5749 119.897 100.906 115.565C103.432 113.04 104.83 109.849 105.113 106.624C105.261 104.943 106.744 103.7 108.425 103.848C110.106 103.995 111.349 105.478 111.201 107.159C110.795 111.781 108.791 116.323 105.228 119.886C99.1207 125.993 90.1397 127.523 82.7806 124.27C81.2371 123.588 80.539 121.783 81.2213 120.24ZM74.635 110.872C72.9527 111.006 71.4809 109.75 71.3476 108.068C70.8942 102.346 72.9123 96.4187 77.3361 91.995C85.1847 84.1464 97.8455 83.8431 105.612 91.61C106.806 92.8033 106.806 94.738 105.612 95.9312C104.419 97.1245 102.485 97.1245 101.291 95.9312C96.0407 90.6807 87.2513 90.7221 81.6573 96.3162C78.5242 99.4493 77.1246 103.61 77.4396 107.585C77.5729 109.267 76.3172 110.739 74.635 110.872Z" fill="#0F5E67"></path></svg> 