<?xml version="1.0" standalone="no"?>
<!DOCTYPE svg PUBLIC "-//W3C//DTD SVG 20010904//EN"
 "http://www.w3.org/TR/2001/REC-SVG-20010904/DTD/svg10.dtd">
<svg version="1.0" xmlns="http://www.w3.org/2000/svg"
 width="512.000000pt" height="512.000000pt" viewBox="0 0 512.000000 512.000000"
 preserveAspectRatio="xMidYMid meet">

<g transform="translate(0.000000,512.000000) scale(0.100000,-0.100000)"
fill="#000000" stroke="none">
<path d="M2395 4854 c-252 -30 -475 -105 -670 -226 -334 -209 -573 -517 -689
-888 -70 -225 -68 -198 -73 -1089 -3 -532 -1 -843 6 -920 26 -278 110 -528
247 -738 326 -501 853 -766 1454 -731 602 34 1135 418 1370 988 50 121 79 235
101 395 17 126 12 1690 -6 1825 -104 799 -783 1397 -1575 1388 -74 0 -148 -3
-165 -4z m455 -133 c311 -64 612 -242 818 -481 179 -208 311 -487 346 -732 20
-141 34 -1651 16 -1807 -39 -352 -188 -662 -435 -906 -398 -392 -985 -524
-1524 -340 -99 33 -283 131 -378 201 -43 31 -125 105 -183 163 -207 207 -342
461 -407 761 -17 79 -18 151 -18 985 0 841 1 906 19 990 44 212 132 416 250
582 70 97 218 249 310 317 189 141 420 238 666 282 108 19 396 11 520 -15z"/>
<path d="M3184 4097 c-89 -61 -399 -274 -689 -472 -290 -198 -575 -394 -634
-435 -104 -74 -106 -76 -106 -115 0 -34 4 -41 26 -49 24 -8 44 3 200 111 297
205 591 407 919 631 521 357 505 344 508 376 4 31 -22 66 -47 66 -9 0 -89 -51
-177 -113z"/>
<path d="M3139 3627 c-752 -549 -819 -599 -820 -615 -3 -33 3 -47 23 -65 12
-10 27 -16 33 -13 11 4 835 602 1067 774 53 40 100 82 103 93 8 24 -22 72 -46
76 -8 2 -170 -111 -360 -250z"/>
<path d="M3360 3282 c-135 -98 -425 -309 -645 -468 -220 -160 -481 -350 -580
-423 -99 -72 -191 -139 -204 -149 -31 -23 -32 -69 -1 -94 13 -11 29 -17 35
-14 12 4 596 427 1307 946 215 157 396 293 402 302 18 29 -4 73 -39 76 -25 2
-72 -28 -275 -176z"/>
</g>
</svg>
